<svg width="16" height="16" viewBox="0 0 16 16" fill="none" xmlns="http://www.w3.org/2000/svg">
<path d="M1.33333 3.00004C1.33333 2.55801 1.50892 2.13409 1.82148 1.82153C2.13404 1.50897 2.55797 1.33337 2.99999 1.33337H4.66666C5.10869 1.33337 5.53261 1.50897 5.84517 1.82153C6.15773 2.13409 6.33333 2.55801 6.33333 3.00004V4.66671C6.33333 5.10873 6.15773 5.53266 5.84517 5.84522C5.53261 6.15778 5.10869 6.33337 4.66666 6.33337H2.99999C2.55797 6.33337 2.13404 6.15778 1.82148 5.84522C1.50892 5.53266 1.33333 5.10873 1.33333 4.66671V3.00004ZM9.66666 3.00004C9.66666 2.55801 9.84226 2.13409 10.1548 1.82153C10.4674 1.50897 10.8913 1.33337 11.3333 1.33337H13C13.442 1.33337 13.8659 1.50897 14.1785 1.82153C14.4911 2.13409 14.6667 2.55801 14.6667 3.00004V4.66671C14.6667 5.10873 14.4911 5.53266 14.1785 5.84522C13.8659 6.15778 13.442 6.33337 13 6.33337H11.3333C10.8913 6.33337 10.4674 6.15778 10.1548 5.84522C9.84226 5.53266 9.66666 5.10873 9.66666 4.66671V3.00004ZM1.33333 11.3334C1.33333 10.8913 1.50892 10.4674 1.82148 10.1549C2.13404 9.8423 2.55797 9.66671 2.99999 9.66671H4.66666C5.10869 9.66671 5.53261 9.8423 5.84517 10.1549C6.15773 10.4674 6.33333 10.8913 6.33333 11.3334V13C6.33333 13.4421 6.15773 13.866 5.84517 14.1786C5.53261 14.4911 5.10869 14.6667 4.66666 14.6667H2.99999C2.55797 14.6667 2.13404 14.4911 1.82148 14.1786C1.50892 13.866 1.33333 13.4421 1.33333 13V11.3334ZM9.66666 11.3334C9.66666 10.8913 9.84226 10.4674 10.1548 10.1549C10.4674 9.8423 10.8913 9.66671 11.3333 9.66671H13C13.442 9.66671 13.8659 9.8423 14.1785 10.1549C14.4911 10.4674 14.6667 10.8913 14.6667 11.3334V13C14.6667 13.4421 14.4911 13.866 14.1785 14.1786C13.8659 14.4911 13.442 14.6667 13 14.6667H11.3333C10.8913 14.6667 10.4674 14.4911 10.1548 14.1786C9.84226 13.866 9.66666 13.4421 9.66666 13V11.3334Z" stroke="#7D7D7D" stroke-width="1.5" stroke-linecap="round" stroke-linejoin="round"/>
</svg>
