<svg width="21" height="20" viewBox="0 0 21 20" fill="none" xmlns="http://www.w3.org/2000/svg">
<path d="M14.7333 15.3584H11.2667L7.40999 17.825C6.83799 18.1917 6.06667 17.8001 6.06667 17.1334V15.3584C3.46667 15.3584 1.73334 13.6917 1.73334 11.1917V6.19169C1.73334 3.69169 3.46667 2.02502 6.06667 2.02502H14.7333C17.3333 2.02502 19.0667 3.69169 19.0667 6.19169V11.1917C19.0667 13.6917 17.3333 15.3584 14.7333 15.3584Z" stroke="#7D7D7D" stroke-width="1.3" stroke-miterlimit="10" stroke-linecap="round" stroke-linejoin="round"/>
<path d="M10.4 9.46667V9.29171C10.4 8.72504 10.764 8.42503 11.128 8.18336C11.4833 7.95003 11.8386 7.65004 11.8386 7.10004C11.8386 6.33337 11.1973 5.71667 10.4 5.71667C9.60266 5.71667 8.96135 6.33337 8.96135 7.10004" stroke="#7D7D7D" stroke-width="1.3" stroke-linecap="round" stroke-linejoin="round"/>
<path d="M10.3961 11.4583H10.4039" stroke="#7D7D7D" stroke-width="1.3" stroke-linecap="round" stroke-linejoin="round"/>
</svg>
